<?xml version="1.0" standalone="no"?>
<!DOCTYPE svg PUBLIC "-//W3C//DTD SVG 20010904//EN"
 "http://www.w3.org/TR/2001/REC-SVG-20010904/DTD/svg10.dtd">
<svg version="1.0" xmlns="http://www.w3.org/2000/svg" width="1200.000000pt" height="1200.000000pt" viewBox="0 0 1200.000000 1200.000000" preserveAspectRatio="xMidYMid meet">
<metadata>
Created by potrace 1.11, written by Peter Selinger 2001-2013
</metadata>
<g transform="translate(0.000000,1200.000000) scale(0.100000,-0.100000)" fill="#000000" stroke="none">
<path d="M2700 11979 c-478 -49 -974 -228 -1371 -495 -172 -116 -289 -213
-449 -374 -250 -249 -412 -474 -565 -785 -146 -295 -234 -570 -287 -895 l-23
-135 -3 -3210 c-2 -2287 0 -3246 8 -3335 48 -541 243 -1067 558 -1500 477
-656 1178 -1082 1993 -1212 l144 -23 3295 0 3295 0 144 23 c630 100 1191 376
1640 807 261 251 460 525 622 860 163 336 256 674 289 1045 8 89 10 1048 8
3335 l-3 3210 -23 138 c-55 328 -141 597 -287 892 -99 202 -209 377 -340 540
-100 127 -341 368 -465 466 -459 365 -1014 591 -1594 648 -134 13 -6456 13
-6586 0z m6650 -212 c360 -55 622 -137 920 -288 264 -133 488 -296 706 -514
442 -441 700 -964 801 -1625 16 -107 17 -323 21 -3210 2 -2073 0 -3153 -7
-3270 -24 -389 -107 -716 -271 -1058 -147 -306 -303 -526 -545 -768 -224 -225
-439 -380 -715 -518 -301 -150 -582 -236 -926 -283 -121 -17 -316 -18 -3334
-18 -3035 0 -3212 1 -3335 18 -345 48 -624 133 -925 283 -467 233 -869 605
-1139 1056 -224 374 -360 814 -391 1258 -13 197 -13 6143 0 6340 60 879 510
1657 1244 2150 384 258 873 425 1343 460 60 4 1532 7 3273 6 2958 -2 3173 -3
3280 -19z"></path>
<path d="M5750 7940 l0 -1410 745 0 745 0 0 150 0 150 -580 0 -580 0 0 490 0
490 510 0 510 0 0 150 0 150 -510 0 -510 0 0 465 0 465 550 0 550 0 0 155 0
155 -715 0 -715 0 0 -1410z"></path>
<path d="M7780 7939 l0 -1410 513 4 c508 4 513 4 627 30 373 84 634 240 841
502 234 296 328 694 274 1155 -72 620 -415 979 -1040 1090 -175 31 -350 40
-797 40 l-418 0 0 -1411z m1112 1078 c385 -77 619 -262 732 -578 52 -146 70
-265 70 -474 0 -194 -15 -302 -61 -444 -105 -326 -350 -549 -701 -641 -135
-35 -299 -50 -564 -50 l-248 0 0 1106 0 1106 348 -5 c254 -4 368 -9 424 -20z"></path>
<path d="M1640 7960 l0 -80 220 0 220 0 0 -675 0 -675 90 0 90 0 0 675 0 675
215 0 215 0 0 80 0 80 -525 0 -525 0 0 -80z"></path>
<path d="M2930 7285 l0 -755 90 0 90 0 0 345 0 345 390 0 390 0 0 -345 0 -345
90 0 90 0 0 755 0 755 -90 0 -90 0 0 -330 0 -330 -390 0 -390 0 0 330 0 330
-90 0 -90 0 0 -755z"></path>
<path d="M4460 7285 l0 -755 405 0 405 0 0 80 0 80 -315 0 -315 0 0 265 0 265
275 0 275 0 0 80 0 80 -275 0 -275 0 0 250 0 250 295 0 295 0 0 80 0 80 -385
0 -385 0 0 -755z"></path>
<path d="M1916 5714 c-94 -18 -206 -73 -259 -126 -24 -24 -57 -71 -73 -104
-26 -54 -29 -68 -29 -164 0 -99 2 -110 33 -172 55 -111 143 -178 358 -268 177
-74 250 -148 225 -230 -44 -148 -362 -147 -578 2 l-43 29 0 -156 0 -156 43
-19 c96 -42 174 -54 357 -54 190 0 255 11 353 61 70 35 142 106 173 170 21 43
28 73 32 147 8 156 -36 255 -150 341 -58 43 -101 66 -299 158 -151 70 -201
135 -162 214 53 108 297 123 486 30 l67 -33 0 147 0 148 -52 16 c-123 37 -350
46 -482 19z"></path>
<path d="M2740 5010 l0 -700 160 0 160 0 0 285 0 285 285 0 285 0 0 -285 0
-285 160 0 160 0 0 700 0 700 -160 0 -160 0 0 -280 0 -280 -285 0 -285 0 0
280 0 280 -160 0 -160 0 0 -700z"></path>
<path d="M4270 5010 l0 -700 420 0 420 0 0 130 0 130 -260 0 -260 0 0 155 0
155 230 0 230 0 0 130 0 130 -230 0 -230 0 0 155 0 155 245 0 245 0 0 130 0
130 -405 0 -405 0 0 -700z"></path>
<path d="M5340 5010 l0 -700 420 0 420 0 0 130 0 130 -265 0 -265 0 0 155 0
155 230 0 230 0 0 130 0 130 -230 0 -230 0 0 155 0 155 250 0 250 0 0 130 0
130 -405 0 -405 0 0 -700z"></path>
<path d="M6400 5011 l0 -701 160 0 160 0 0 270 0 270 50 0 c65 0 108 -18 147
-63 17 -20 91 -135 164 -256 l132 -221 345 2 346 3 48 153 49 152 246 -2 247
-3 50 -152 51 -153 173 0 c107 0 172 4 170 10 -1 5 -113 320 -248 699 l-245
691 -190 0 -191 0 -249 -685 c-193 -531 -251 -683 -260 -673 -7 7 -72 108
-145 223 -148 234 -192 292 -258 337 l-45 31 48 19 c98 38 172 106 223 201 25
48 27 60 27 172 0 111 -2 124 -27 171 -45 85 -119 141 -238 180 -47 15 -103
18 -397 22 l-343 4 0 -701z m595 433 c106 -54 112 -213 12 -301 -47 -41 -91
-53 -199 -53 l-88 0 0 191 0 191 118 -4 c94 -2 125 -7 157 -24z m1343 -320
c38 -120 72 -229 76 -241 l7 -23 -175 0 c-97 0 -176 3 -176 6 0 4 36 119 80
256 45 138 84 271 87 296 l6 47 13 -61 c6 -33 43 -159 82 -280z"></path>
<path d="M9110 5010 l0 -700 150 0 150 0 2 488 3 488 319 -488 320 -488 163 0
163 0 0 700 0 700 -150 0 -150 0 -1 -477 c0 -374 -3 -474 -12 -460 -7 10 -146
225 -311 478 l-298 459 -174 0 -174 0 0 -700z"></path>
<path d="M1900 3425 c-107 -31 -194 -103 -218 -184 -17 -56 -14 -140 7 -186
28 -61 115 -133 242 -199 212 -110 244 -144 237 -246 -7 -102 -66 -142 -208
-144 -94 0 -190 26 -255 69 l-35 24 0 -74 c0 -72 1 -75 30 -90 76 -39 256 -56
362 -34 182 39 280 183 234 342 -28 98 -111 169 -312 270 -107 54 -152 89
-170 134 -58 139 78 244 276 214 41 -6 96 -22 123 -35 l47 -23 0 69 0 69 -37
16 c-54 23 -250 28 -323 8z"></path>
<path d="M6890 3429 c-125 -24 -258 -128 -317 -249 -81 -166 -83 -408 -6 -566
35 -73 126 -172 191 -207 141 -77 353 -77 496 1 68 37 144 115 183 187 48 92
66 173 66 305 1 182 -38 295 -139 400 -62 65 -125 103 -209 125 -64 16 -192
18 -265 4z m240 -119 c94 -26 170 -102 211 -209 34 -85 39 -285 11 -378 -52
-170 -164 -256 -337 -257 -116 -1 -175 22 -251 98 -44 45 -67 77 -83 121 -87
228 -21 494 147 592 85 50 200 63 302 33z"></path>
<path d="M4010 2895 l0 -525 65 0 65 0 0 240 0 240 270 0 270 0 0 -240 0 -240
65 0 65 0 0 525 0 525 -65 0 -65 0 0 -230 0 -230 -270 0 -270 0 0 230 0 230
-65 0 -65 0 0 -525z"></path>
<path d="M9060 3393 c5 -15 68 -230 140 -478 72 -247 138 -471 146 -497 l16
-48 72 0 73 0 112 398 c125 443 129 457 130 427 0 -11 51 -201 113 -422 l113
-403 75 0 75 0 144 513 c79 281 146 518 149 525 3 9 -14 12 -67 12 -39 0 -71
-2 -71 -5 0 -9 -220 -839 -227 -855 -5 -12 -7 -11 -10 5 -5 21 -194 713 -220
803 l-15 53 -61 -3 -61 -3 -123 -425 c-67 -234 -123 -434 -124 -445 0 -11 -11
21 -24 70 -13 50 -68 250 -123 445 l-98 355 -72 3 -71 3 9 -28z"></path>
<path d="M1580 2190 l0 -40 4430 0 4430 0 0 40 0 40 -4430 0 -4430 0 0 -40z"></path>
</g>
</svg>
