<svg id="ff28702a-f80c-40fa-8386-df8691db4e5c" data-name="Layer 1" xmlns="http://www.w3.org/2000/svg" viewBox="0 0 807.21 292.01">
  <defs>
    <style>
      .a80237a6-6b2a-4e15-9c3c-9b3c53f69ac3, .a8dbe1e3-ce51-4ea9-ab2b-0b4c0bcf2907, .af0ffc90-f1ed-4a00-aa45-fecfc55ed01b, .b9ed120d-47ca-402a-9ff3-0c40209beb98, .bae1c36f-e605-42dc-8e6f-22be304b9353 {
        isolation: isolate;
      }

      .a3c0e99b-fb04-4a2a-8500-0af8314b5512 {
        fill: #fff;
      }

      .a80237a6-6b2a-4e15-9c3c-9b3c53f69ac3 {
        font-size: 47.88px;
        font-family: SegoeUI-Bold, Segoe UI;
        font-weight: 700;
      }

      .a80237a6-6b2a-4e15-9c3c-9b3c53f69ac3, .a8dbe1e3-ce51-4ea9-ab2b-0b4c0bcf2907, .af0ffc90-f1ed-4a00-aa45-fecfc55ed01b, .bae1c36f-e605-42dc-8e6f-22be304b9353 {
        fill: #010101;
      }

      .af0ffc90-f1ed-4a00-aa45-fecfc55ed01b {
        font-size: 35.91px;
        text-decoration: underline;
        letter-spacing: 1em;
      }

      .af0ffc90-f1ed-4a00-aa45-fecfc55ed01b, .bae1c36f-e605-42dc-8e6f-22be304b9353 {
        font-family: SegoeUI, Segoe UI;
      }

      .f3ac6cf8-e585-41a8-bbe1-c849d6e1ddca {
        letter-spacing: 0.98em;
      }

      .a8dbe1e3-ce51-4ea9-ab2b-0b4c0bcf2907 {
        font-size: 96.24px;
        font-family: NirmalaUI, Nirmala UI;
      }

      .bae1c36f-e605-42dc-8e6f-22be304b9353 {
        font-size: 51.71px;
      }

      .a09aea71-d330-44aa-871c-14a86efa22e0, .b0c56cee-ff60-4c09-bd68-ab9d13f2b612 {
        fill: none;
      }

      .b0c56cee-ff60-4c09-bd68-ab9d13f2b612 {
        stroke: #010101;
        stroke-width: 10px;
      }
    </style>
  </defs>
  <title>logo</title>
  <g>
    <g id="f4538ef0-74f4-4167-970f-b23d72e30b05" data-name="SHEERAN" class="b9ed120d-47ca-402a-9ff3-0c40209beb98">
      <g class="b9ed120d-47ca-402a-9ff3-0c40209beb98">
        <path class="a3c0e99b-fb04-4a2a-8500-0af8314b5512" d="M163,285.49V278a14.4,14.4,0,0,0,4.42,2.56,14.2,14.2,0,0,0,4.82.85,10.8,10.8,0,0,0,2.49-.25,5.79,5.79,0,0,0,1.77-.72,3.12,3.12,0,0,0,1.07-1.07,2.74,2.74,0,0,0,.35-1.35,2.92,2.92,0,0,0-.56-1.75,6.42,6.42,0,0,0-1.53-1.43,17.39,17.39,0,0,0-2.31-1.26c-.89-.4-1.84-.82-2.87-1.24a14.64,14.64,0,0,1-5.86-4,8.74,8.74,0,0,1-1.93-5.7,8.64,8.64,0,0,1,3.92-7.6,13.11,13.11,0,0,1,4.19-1.79,21.71,21.71,0,0,1,5.05-.57,30.26,30.26,0,0,1,4.64.32,17.85,17.85,0,0,1,3.73,1v7a10.82,10.82,0,0,0-1.83-1,14.73,14.73,0,0,0-2-.74,15.84,15.84,0,0,0-2.09-.43,15.33,15.33,0,0,0-2-.14,10.52,10.52,0,0,0-2.34.24,6.36,6.36,0,0,0-1.78.69,3.39,3.39,0,0,0-1.12,1.07,2.46,2.46,0,0,0-.4,1.39,2.65,2.65,0,0,0,.45,1.51,5,5,0,0,0,1.26,1.26,13.11,13.11,0,0,0,2,1.17c.78.38,1.66.77,2.65,1.18a29.62,29.62,0,0,1,3.61,1.79,12.76,12.76,0,0,1,2.75,2.14,8.4,8.4,0,0,1,1.75,2.72,9.72,9.72,0,0,1,.61,3.56,9.55,9.55,0,0,1-1.07,4.72,8.6,8.6,0,0,1-2.88,3.08,12.63,12.63,0,0,1-4.25,1.7,24.67,24.67,0,0,1-5.11.51,27.68,27.68,0,0,1-5.24-.47A16,16,0,0,1,163,285.49Z" transform="translate(391.56 -100.32)"/>
        <path class="a3c0e99b-fb04-4a2a-8500-0af8314b5512" d="M220.41,286.78h-7.58V273.12H199v13.66h-7.56V253.25H199v13.37h13.88V253.25h7.58Z" transform="translate(391.56 -100.32)"/>
        <path class="a3c0e99b-fb04-4a2a-8500-0af8314b5512" d="M248.18,286.78H228.07V253.25h19.34v6.15H235.63v7.46h11V273h-11v7.67h12.55Z" transform="translate(391.56 -100.32)"/>
        <path class="a3c0e99b-fb04-4a2a-8500-0af8314b5512" d="M273.66,286.78h-20.1V253.25h19.33v6.15H261.11v7.46h11V273h-11v7.67h12.55Z" transform="translate(391.56 -100.32)"/>
        <path class="a3c0e99b-fb04-4a2a-8500-0af8314b5512" d="M307.16,286.78h-8.67l-5.21-8.63c-.39-.65-.77-1.24-1.13-1.75a8.89,8.89,0,0,0-1.08-1.32,4.43,4.43,0,0,0-1.15-.85,3,3,0,0,0-1.3-.29h-2v12.84H279V253.25h12q12.19,0,12.2,9.12a9.41,9.41,0,0,1-.54,3.24,8.79,8.79,0,0,1-1.51,2.67,9.69,9.69,0,0,1-2.38,2.06,12.25,12.25,0,0,1-3.1,1.36v.09a4.81,4.81,0,0,1,1.45.76,10.29,10.29,0,0,1,1.36,1.23,17,17,0,0,1,1.25,1.51c.4.53.76,1.06,1.09,1.57Zm-20.57-27.87v9.33h3.27a5.42,5.42,0,0,0,3.91-1.41,4.69,4.69,0,0,0,1.49-3.53c0-2.92-1.75-4.39-5.26-4.39Z" transform="translate(391.56 -100.32)"/>
        <path class="a3c0e99b-fb04-4a2a-8500-0af8314b5512" d="M339.78,286.78h-8.23l-2.39-7.46H317.24l-2.36,7.46H306.7l12.2-33.53h9Zm-12.35-13.26-3.6-11.27a15,15,0,0,1-.56-3h-.19a12.49,12.49,0,0,1-.58,2.92l-3.65,11.36Z" transform="translate(391.56 -100.32)"/>
        <path class="a3c0e99b-fb04-4a2a-8500-0af8314b5512" d="M374.12,286.78H366.5l-13.82-21.07a30.29,30.29,0,0,1-1.68-2.78h-.1c.13,1.19.19,3,.19,5.42v18.43H344V253.25h8.14l13.3,20.41c.61.92,1.17,1.83,1.68,2.74h.09a37.34,37.34,0,0,1-.18-4.61V253.25h7.13Z" transform="translate(391.56 -100.32)"/>
      </g>
    </g>
    <g id="bcc0779b-40ff-4809-8df9-dfedc2228e2c" data-name="SHOW" class="b9ed120d-47ca-402a-9ff3-0c40209beb98">
      <g class="b9ed120d-47ca-402a-9ff3-0c40209beb98">
        <path class="a3c0e99b-fb04-4a2a-8500-0af8314b5512" d="M165.72,332.2v-3.47a6.46,6.46,0,0,0,1.43.95,12.31,12.31,0,0,0,1.75.71,13.43,13.43,0,0,0,1.85.44,9.83,9.83,0,0,0,1.72.16,6.69,6.69,0,0,0,4.06-1,3.42,3.42,0,0,0,1.34-2.9,3.38,3.38,0,0,0-.45-1.77,5.14,5.14,0,0,0-1.24-1.38,12.21,12.21,0,0,0-1.86-1.19l-2.33-1.2c-.87-.44-1.69-.89-2.45-1.35a10.32,10.32,0,0,1-2-1.51,6.35,6.35,0,0,1-1.33-1.86,5.82,5.82,0,0,1-.48-2.45,5.68,5.68,0,0,1,.76-3,6.29,6.29,0,0,1,2-2.09,8.94,8.94,0,0,1,2.79-1.23,12.82,12.82,0,0,1,3.2-.41,12.19,12.19,0,0,1,5.42.9v3.31a9.79,9.79,0,0,0-5.71-1.54,9.65,9.65,0,0,0-1.93.2,5.6,5.6,0,0,0-1.72.66,3.82,3.82,0,0,0-1.23,1.17,3.19,3.19,0,0,0-.47,1.76,3.57,3.57,0,0,0,.36,1.66,4,4,0,0,0,1.06,1.28,9.93,9.93,0,0,0,1.71,1.12c.67.37,1.44.76,2.32,1.2s1.75.91,2.56,1.4A11.43,11.43,0,0,1,179,322.4a7.41,7.41,0,0,1,1.45,2,5.69,5.69,0,0,1,.53,2.49,6.38,6.38,0,0,1-.72,3.15,5.89,5.89,0,0,1-2,2.09,8.47,8.47,0,0,1-2.85,1.17,15.55,15.55,0,0,1-3.4.36,12.46,12.46,0,0,1-1.47-.1,16.57,16.57,0,0,1-1.79-.28,14.57,14.57,0,0,1-1.73-.45A5.28,5.28,0,0,1,165.72,332.2Z" transform="translate(391.56 -100.32)"/>
        <path class="a3c0e99b-fb04-4a2a-8500-0af8314b5512" d="M240.78,333.22h-2.95V321.75h-13v11.47h-2.94V308.08h2.94v11h13v-11h2.95Z" transform="translate(391.56 -100.32)"/>
        <path class="a3c0e99b-fb04-4a2a-8500-0af8314b5512" d="M293.41,333.64a11.06,11.06,0,0,1-8.56-3.52,13.06,13.06,0,0,1-3.22-9.17q0-6.07,3.28-9.68a11.45,11.45,0,0,1,8.92-3.62,10.77,10.77,0,0,1,8.39,3.51,13.1,13.1,0,0,1,3.19,9.17q0,6.15-3.26,9.73A11.25,11.25,0,0,1,293.41,333.64Zm.22-23.32a8.09,8.09,0,0,0-6.44,2.86,12.72,12.72,0,0,0-.06,15,7.85,7.85,0,0,0,6.28,2.83,8.27,8.27,0,0,0,6.53-2.7q2.38-2.7,2.38-7.56c0-3.31-.77-5.88-2.31-7.69A8,8,0,0,0,293.63,310.32Z" transform="translate(391.56 -100.32)"/>
        <path class="a3c0e99b-fb04-4a2a-8500-0af8314b5512" d="M375.19,308.08l-7.1,25.14h-3.45l-5.18-18.38a11.73,11.73,0,0,1-.4-2.56H359a12.54,12.54,0,0,1-.46,2.53l-5.2,18.41h-3.42l-7.37-25.14h3.25l5.35,19.28a13,13,0,0,1,.42,2.53h.08a14.75,14.75,0,0,1,.55-2.53l5.56-19.28h2.82l5.33,19.42a13.64,13.64,0,0,1,.42,2.35h.07a14.46,14.46,0,0,1,.47-2.42L372,308.08Z" transform="translate(391.56 -100.32)"/>
        <path class="a3c0e99b-fb04-4a2a-8500-0af8314b5512" d="M163.59,337.38V335.3H381.22v2.08Z" transform="translate(391.56 -100.32)"/>
      </g>
    </g>
    <g id="b6eda894-2236-42d4-b9d1-6a8516eaa7c5" data-name="Group 1">
      <g id="ae171371-a5fa-4c8b-9398-0b3ca296d7cc" data-name="ED" class="b9ed120d-47ca-402a-9ff3-0c40209beb98">
        <g class="b9ed120d-47ca-402a-9ff3-0c40209beb98">
          <path class="a3c0e99b-fb04-4a2a-8500-0af8314b5512" d="M299.11,233.63H263.4V166.25h34.21v7.14H271.29V195.8h24.34v7.1H271.29v23.59h27.82Z" transform="translate(391.56 -100.32)"/>
          <path class="a3c0e99b-fb04-4a2a-8500-0af8314b5512" d="M312.08,233.63V166.25h18.61q35.61,0,35.62,32.84,0,15.6-9.89,25.07t-26.48,9.47ZM320,173.39v53.1H330q13.25,0,20.63-7.1T358,199.28q0-25.89-27.54-25.89Z" transform="translate(391.56 -100.32)"/>
        </g>
      </g>
      <g id="a947926d-1a2d-4758-933b-43aebf465c82" data-name="THE" class="b9ed120d-47ca-402a-9ff3-0c40209beb98">
        <g class="b9ed120d-47ca-402a-9ff3-0c40209beb98">
          <path class="a3c0e99b-fb04-4a2a-8500-0af8314b5512" d="M190.23,201.26H179.78v32.37h-4.24V201.26H165.11v-3.84h25.12Z" transform="translate(391.56 -100.32)"/>
          <path class="a3c0e99b-fb04-4a2a-8500-0af8314b5512" d="M223.13,233.63h-4.24V217.12H200.15v16.51h-4.24V197.42h4.24v15.89h18.74V197.42h4.24Z" transform="translate(391.56 -100.32)"/>
          <path class="a3c0e99b-fb04-4a2a-8500-0af8314b5512" d="M251.81,233.63H232.62V197.42H251v3.84H236.86v12.05h13.08v3.81H236.86v12.67h14.95Z" transform="translate(391.56 -100.32)"/>
        </g>
      </g>
    </g>
    <g id="ba4e300b-3006-4703-bdf5-5c74b9f9ba5c" data-name="Rectangle 1">
      <rect class="a3c0e99b-fb04-4a2a-8500-0af8314b5512" x="517.33" y="2.61" width="287.27" height="286.79" rx="71.82"/>
      <path class="a3c0e99b-fb04-4a2a-8500-0af8314b5512" d="M341.22,392.32H197.59a74.51,74.51,0,0,1-74.43-74.42V174.74a74.51,74.51,0,0,1,74.43-74.42H341.22a74.51,74.51,0,0,1,74.43,74.42V317.9A74.51,74.51,0,0,1,341.22,392.32Zm-143.63-282a64.5,64.5,0,0,0-64.43,64.42V317.9a64.5,64.5,0,0,0,64.43,64.42H341.22a64.5,64.5,0,0,0,64.43-64.42V174.74a64.5,64.5,0,0,0-64.43-64.42Z" transform="translate(391.56 -100.32)"/>
    </g>
  </g>
  <g id="ae85e4c1-fee3-426a-8cce-4d81cb873e0d" data-name="SHEERAN" class="b9ed120d-47ca-402a-9ff3-0c40209beb98">
    <text class="a80237a6-6b2a-4e15-9c3c-9b3c53f69ac3" transform="translate(37.56 186.46)">SHEERAN</text>
  </g>
  <g id="e7748ab1-6260-4d05-9ba2-bd77b60c0793" data-name="SHOW" class="b9ed120d-47ca-402a-9ff3-0c40209beb98">
    <text class="af0ffc90-f1ed-4a00-aa45-fecfc55ed01b" transform="translate(40.43 232.9)">SH<tspan class="f3ac6cf8-e585-41a8-bbe1-c849d6e1ddca" x="116.39" y="0">O</tspan><tspan x="178.49" y="0">W</tspan></text>
  </g>
  <g id="e9f7321d-f798-4823-8752-93c04641d9fd" data-name="Group 1">
    <g id="b6cacd89-9648-4763-b71a-161c7a79ba41" data-name="ED" class="b9ed120d-47ca-402a-9ff3-0c40209beb98">
      <text class="a8dbe1e3-ce51-4ea9-ab2b-0b4c0bcf2907" transform="translate(131.4 133.31)">ED</text>
    </g>
    <g id="eb666195-d1c3-4e37-bbc4-25bb9e933f11" data-name="THE" class="b9ed120d-47ca-402a-9ff3-0c40209beb98">
      <text class="bae1c36f-e605-42dc-8e6f-22be304b9353" transform="translate(40.91 133.31)">THE</text>
    </g>
  </g>
  <g id="b8f47f76-eae0-4fc9-a5e1-bb228c78df39" data-name="Rectangle 1">
    <rect class="a09aea71-d330-44aa-871c-14a86efa22e0" x="2.61" y="2.61" width="287.27" height="286.79" rx="71.82"/>
    <rect class="b0c56cee-ff60-4c09-bd68-ab9d13f2b612" x="5" y="5" width="282.48" height="282.01" rx="69.42"/>
  </g>
</svg>
